<?xml version="1.0" encoding="UTF-8" standalone="no"?>
<!-- Created with Inkscape (http://www.inkscape.org/) -->

<svg
   width="45.877182mm"
   height="10.058027mm"
   viewBox="0 0 45.877182 10.058027"
   version="1.1"
   id="svg1"
   xmlns="http://www.w3.org/2000/svg"
   xmlns:svg="http://www.w3.org/2000/svg"
   xmlns:rdf="http://www.w3.org/1999/02/22-rdf-syntax-ns#"
   xmlns:cc="http://creativecommons.org/ns#">
  <defs
     id="defs1" />
  <g
     id="layer1"
     transform="translate(-44.032059,-96.523524)">
    <g
       id="g14"
       transform="translate(-59.7,-30)">
      <g
         id="g62"
         style="font-weight:600;font-size:22.5778px;font-family:Syne;-inkscape-font-specification:'Syne, Semi-Bold';letter-spacing:0px;fill:#fade2c;fill-opacity:1;stroke-width:0.264583"
         aria-label="regex"
         transform="matrix(0.59440125,0,0,0.59440125,81.664966,38.296891)">
        <g
           id="g61"
           transform="matrix(0.93318104,0,0,0.93318104,15.330815,27.563865)"
           style="fill:#fade2c;fill-opacity:1">
          <g
             id="g60"
             transform="translate(-52.497682,-15.464433)"
             style="fill:#fade2c;fill-opacity:1">
            <path
               style="letter-spacing:-0.0396875px;fill:#fade2c;fill-opacity:1"
               d="m 78.872129,38.88539 h 2.506136 v 11.243745 h -2.506136 z m 6.57014,2.144891 q -1.219201,0 -2.099736,0.51929 -0.857956,0.519289 -1.377245,1.264357 -0.51929,0.745067 -0.72249,1.444979 L 81.22022,42.99455 q 0.02258,-0.248356 0.158045,-0.745067 0.135467,-0.51929 0.4064,-1.12889 0.293512,-0.609601 0.767645,-1.174046 0.496712,-0.587023 1.196624,-0.948268 0.72249,-0.361244 1.693335,-0.361244 z"
               id="path58" />
            <path
               style="word-spacing:0px;fill:#fade2c;fill-opacity:1"
               d="m 96.691482,46.426376 h 2.415824 q -0.180622,1.151468 -0.903112,2.05458 -0.699911,0.880534 -1.919113,1.399823 -1.219201,0.496712 -2.912536,0.496712 -1.919113,0 -3.431826,-0.699912 -1.512712,-0.72249 -2.370669,-2.032002 -0.857956,-1.309512 -0.857956,-3.115736 0,-1.783647 0.835378,-3.115737 0.835379,-1.33209 2.302936,-2.05458 1.490135,-0.722489 3.431826,-0.722489 2.009424,0 3.341514,0.722489 1.354668,0.699912 2.009425,2.122313 0.654756,1.399824 0.541867,3.544715 h -9.911655 q 0.112889,0.948268 0.609601,1.715913 0.519289,0.745067 1.399824,1.174046 0.880534,0.4064 2.054579,0.4064 1.309513,0 2.190047,-0.519289 0.903112,-0.51929 1.174046,-1.377246 z M 93.2145,40.669037 q -1.53529,0 -2.528713,0.767645 -0.993424,0.745067 -1.286935,1.919113 h 7.247474 q -0.09031,-1.264357 -1.016001,-1.964269 -0.92569,-0.722489 -2.415825,-0.722489 z"
               id="path59" />
            <path
               d="m 106.42251,48.390644 c -1.05363,0 -2.00942,-0.188148 -2.86738,-0.564445 -0.8429,-0.376297 -1.51271,-0.92569 -2.00942,-1.648179 -0.48166,-0.722489 -0.72249,-1.587972 -0.72249,-2.596447 0,-1.008475 0.2333,-1.881484 0.69991,-2.619025 0.48166,-0.737541 1.14394,-1.309512 1.98685,-1.715913 0.85795,-0.4064 1.8288,-0.6096 2.91253,-0.6096 0.31609,0 0.61713,0.02258 0.90312,0.06773 0.30103,0.04515 0.58702,0.105361 0.85795,0.180622 l 5.26063,0.02258 v 2.099736 c -0.72249,0.01505 -1.45251,-0.08278 -2.19005,-0.293512 -0.72249,-0.225778 -1.36219,-0.459082 -1.91911,-0.699912 l -0.0677,-0.135466 c 0.51176,0.255881 0.97084,0.57197 1.37724,0.948267 0.42145,0.361245 0.7526,0.775171 0.99343,1.241779 0.24083,0.466608 0.36124,0.993423 0.36124,1.580446 0,0.993423 -0.24083,1.843854 -0.72249,2.551292 -0.46661,0.707437 -1.12136,1.249304 -1.96427,1.625601 -0.82785,0.376297 -1.79117,0.564445 -2.88996,0.564445 z m 3.61245,6.321785 v -0.51929 c 0,-0.737541 -0.21825,-1.256831 -0.65475,-1.557868 -0.43651,-0.301037 -1.04611,-0.451556 -1.82881,-0.451556 h -3.048 c -0.60207,0 -1.12136,-0.05268 -1.55787,-0.158045 -0.42145,-0.09031 -0.76012,-0.233303 -1.016,-0.428978 -0.25588,-0.180622 -0.44403,-0.398874 -0.56444,-0.654756 -0.12042,-0.24083 -0.18063,-0.511764 -0.18063,-0.812801 0,-0.602075 0.18062,-1.053631 0.54187,-1.354668 0.3763,-0.301037 0.86549,-0.496712 1.46756,-0.587023 0.61713,-0.09031 1.26436,-0.105365 1.94169,-0.04516 l 1.28693,0.248355 c -0.88806,0.03011 -1.56539,0.112892 -2.032,0.248356 -0.45155,0.120415 -0.67733,0.368771 -0.67733,0.745068 0,0.225778 0.0903,0.4064 0.27093,0.541867 0.18062,0.135467 0.4365,0.2032 0.76765,0.2032 h 3.20604 c 0.91817,0 1.72344,0.105363 2.41583,0.316089 0.69239,0.225778 1.22673,0.594549 1.60302,1.106313 0.39135,0.526815 0.58703,1.241779 0.58703,2.144891 v 1.016001 z m -3.61245,-8.286053 c 0.60208,0 1.13642,-0.112889 1.60303,-0.338667 0.46661,-0.225778 0.83538,-0.549393 1.10631,-0.970846 0.27093,-0.421452 0.4064,-0.933215 0.4064,-1.53529 0,-0.602075 -0.13547,-1.121364 -0.4064,-1.557868 -0.27093,-0.436505 -0.6397,-0.767646 -1.10631,-0.993424 -0.46661,-0.225778 -1.00095,-0.338667 -1.60303,-0.338667 -0.58702,0 -1.12136,0.112889 -1.60302,0.338667 -0.46661,0.225778 -0.83538,0.556919 -1.10631,0.993424 -0.27093,0.421452 -0.4064,0.940741 -0.4064,1.557868 0,0.602075 0.13547,1.113838 0.4064,1.53529 0.27093,0.421453 0.6397,0.745068 1.10631,0.970846 0.46661,0.225778 1.00095,0.338667 1.60302,0.338667 z m 18.28801,0 h 2.41582 c -0.12041,0.767645 -0.42145,1.452505 -0.90311,2.05458 -0.46661,0.587023 -1.10631,1.05363 -1.91911,1.399823 -0.81281,0.331141 -1.78365,0.496712 -2.91254,0.496712 -1.27941,0 -2.42335,-0.233304 -3.43183,-0.699912 -1.00847,-0.48166 -1.7987,-1.158994 -2.37067,-2.032002 -0.57197,-0.873008 -0.85795,-1.911587 -0.85795,-3.115736 0,-1.189098 0.27846,-2.227677 0.83538,-3.115737 0.55692,-0.88806 1.32456,-1.57292 2.30293,-2.05458 0.99343,-0.481659 2.13737,-0.722489 3.43183,-0.722489 1.33961,0 2.45345,0.24083 3.34151,0.722489 0.90311,0.466608 1.57292,1.174046 2.00943,2.122313 0.4365,0.933216 0.61712,2.114788 0.54186,3.544715 h -9.91165 c 0.0753,0.632179 0.27846,1.20415 0.6096,1.715913 0.34619,0.496711 0.8128,0.88806 1.39982,1.174046 0.58703,0.270933 1.27189,0.4064 2.05458,0.4064 0.87301,0 1.60303,-0.173096 2.19005,-0.519289 0.60207,-0.346193 0.99342,-0.805275 1.17405,-1.377246 z m -3.47699,-5.757339 c -1.02353,0 -1.86643,0.255882 -2.52871,0.767645 -0.66228,0.496711 -1.09126,1.136416 -1.28693,1.919113 h 7.24747 c -0.0602,-0.842905 -0.39887,-1.497661 -1.016,-1.964269 -0.61713,-0.481659 -1.4224,-0.722489 -2.41583,-0.722489 z m 19.16855,-1.783647 -5.28321,6.208896 -3.97369,5.034849 h -3.07058 l 5.55414,-6.547562 3.72533,-4.696183 z m -12.32748,0 h 3.09315 l 3.9737,4.696183 5.55414,6.547562 h -3.07058 l -4.10916,-4.989694 z"
               id="path60"
               style="fill:#fade2c;fill-opacity:1" />
          </g>
        </g>
      </g>
      <g
         id="g5"
         transform="matrix(0.86812863,0,0,0.86812863,-11.4106,12.740852)">
        <path
           d="m 190.17604,99.715856 -1.21508,-0.810047 1.68194,-1.613061 -2.36736,0.30452 v -1.464321 l 2.41259,0.278945 -1.72717,-1.587485 1.21508,-0.810049 1.00145,1.908168 1.03926,-1.908168 1.21506,0.810049 -1.76494,1.587485 2.46595,-0.278945 v 1.464321 l -2.38294,-0.30452 1.68193,1.613061 -1.21506,0.810047 -1.03926,-1.835862 z"
           id="path2"
           style="font-weight:800;font-size:22.5778px;font-family:'Host Grotesk';-inkscape-font-specification:'Host Grotesk, Ultra-Bold';letter-spacing:-0.0396875px;word-spacing:0px;fill:#fade2c;fill-opacity:1;stroke-width:0.182553"
           aria-label="*" />
        <path
           d="m 193.05244,105.4871 6.26426,-11.476505 h 1.76981 l -6.23706,11.476505 z"
           id="path3"
           style="font-style:italic;font-weight:800;font-size:16.7156px;font-family:'Host Grotesk';-inkscape-font-specification:'Host Grotesk, Ultra-Bold Italic';letter-spacing:-0.0293827px;word-spacing:0px;fill:#0d0d0c;stroke-width:0.150288"
           aria-label="/" />
      </g>
      <g
         id="g7"
         transform="translate(-1.6112116,-7.5189873)">
        <g
           id="g58"
           transform="matrix(0.55039414,0,0,0.55039414,42.997073,94.752778)"
           style="fill:#ffffff">
          <g
             id="g56"
             style="font-weight:600;font-size:22.5778px;font-family:Syne;-inkscape-font-specification:'Syne, Semi-Bold';letter-spacing:0px;fill:#0d0d0c;fill-opacity:1;stroke-width:0.264583"
             aria-label="regex">
            <g
               id="g55"
               transform="matrix(0.93318104,0,0,0.93318104,11.177929,3.9243627)"
               style="fill:#0d0d0c;fill-opacity:1">
              <path
                 style="letter-spacing:-0.0396875px;fill:#fade2c;fill-opacity:1"
                 d="m 78.872129,38.88539 h 2.506136 v 11.243745 h -2.506136 z m 6.57014,2.144891 q -1.219201,0 -2.099736,0.51929 -0.857956,0.519289 -1.377245,1.264357 -0.51929,0.745067 -0.72249,1.444979 L 81.22022,42.99455 q 0.02258,-0.248356 0.158045,-0.745067 0.135467,-0.51929 0.4064,-1.12889 0.293512,-0.609601 0.767645,-1.174046 0.496712,-0.587023 1.196624,-0.948268 0.72249,-0.361244 1.693335,-0.361244 z"
                 id="path53" />
              <path
                 style="word-spacing:0px;fill:#fade2c;fill-opacity:1"
                 d="m 96.691482,46.426376 h 2.415824 q -0.180622,1.151468 -0.903112,2.05458 -0.699911,0.880534 -1.919113,1.399823 -1.219201,0.496712 -2.912536,0.496712 -1.919113,0 -3.431826,-0.699912 -1.512712,-0.72249 -2.370669,-2.032002 -0.857956,-1.309512 -0.857956,-3.115736 0,-1.783647 0.835378,-3.115737 0.835379,-1.33209 2.302936,-2.05458 1.490135,-0.722489 3.431826,-0.722489 2.009424,0 3.341514,0.722489 1.354668,0.699912 2.009425,2.122313 0.654756,1.399824 0.541867,3.544715 h -9.911655 q 0.112889,0.948268 0.609601,1.715913 0.519289,0.745067 1.399824,1.174046 0.880534,0.4064 2.054579,0.4064 1.309513,0 2.190047,-0.519289 0.903112,-0.51929 1.174046,-1.377246 z M 93.2145,40.669037 q -1.53529,0 -2.528713,0.767645 -0.993424,0.745067 -1.286935,1.919113 h 7.247474 q -0.09031,-1.264357 -1.016001,-1.964269 -0.92569,-0.722489 -2.415825,-0.722489 z"
                 id="path54" />
              <path
                 d="m 106.42251,48.390644 q -1.58044,0 -2.86738,-0.564445 -1.26435,-0.564445 -2.00942,-1.648179 -0.72249,-1.083734 -0.72249,-2.596447 0,-1.512713 0.69991,-2.619025 0.72249,-1.106312 1.98685,-1.715913 1.28693,-0.6096 2.91253,-0.6096 0.47414,0 0.90312,0.06773 0.45155,0.06773 0.85795,0.180622 l 5.26063,0.02258 v 2.099736 q -1.08374,0.02258 -2.19005,-0.293512 -1.08373,-0.338667 -1.91911,-0.699912 l -0.0677,-0.135466 q 0.76764,0.383822 1.37724,0.948267 0.63218,0.541867 0.99343,1.241779 0.36124,0.699912 0.36124,1.580446 0,1.490135 -0.72249,2.551292 -0.69991,1.061156 -1.96427,1.625601 -1.24178,0.564445 -2.88996,0.564445 z m 3.61245,6.321785 v -0.51929 q 0,-1.106312 -0.65475,-1.557868 -0.65476,-0.451556 -1.82881,-0.451556 h -3.048 q -0.90311,0 -1.55787,-0.158045 -0.63218,-0.135466 -1.016,-0.428978 -0.38382,-0.270933 -0.56444,-0.654756 -0.18063,-0.361245 -0.18063,-0.812801 0,-0.903112 0.54187,-1.354668 0.56445,-0.451556 1.46756,-0.587023 0.92569,-0.135467 1.94169,-0.04516 l 1.28693,0.248355 q -1.33209,0.04516 -2.032,0.248356 -0.67733,0.180623 -0.67733,0.745068 0,0.338667 0.27093,0.541867 0.27093,0.2032 0.76765,0.2032 h 3.20604 q 1.37725,0 2.41583,0.316089 1.03858,0.338667 1.60302,1.106313 0.58703,0.790223 0.58703,2.144891 v 1.016001 z m -3.61245,-8.286053 q 0.90312,0 1.60303,-0.338667 0.69991,-0.338667 1.10631,-0.970846 0.4064,-0.632178 0.4064,-1.53529 0,-0.903112 -0.4064,-1.557868 -0.4064,-0.654757 -1.10631,-0.993424 -0.69991,-0.338667 -1.60303,-0.338667 -0.88053,0 -1.60302,0.338667 -0.69991,0.338667 -1.10631,0.993424 -0.4064,0.632178 -0.4064,1.557868 0,0.903112 0.4064,1.53529 0.4064,0.632179 1.10631,0.970846 0.69991,0.338667 1.60302,0.338667 z m 18.28801,0 h 2.41582 q -0.18062,1.151468 -0.90311,2.05458 -0.69991,0.880534 -1.91911,1.399823 -1.21921,0.496712 -2.91254,0.496712 -1.91911,0 -3.43183,-0.699912 -1.51271,-0.72249 -2.37067,-2.032002 -0.85795,-1.309512 -0.85795,-3.115736 0,-1.783647 0.83538,-3.115737 0.83538,-1.33209 2.30293,-2.05458 1.49014,-0.722489 3.43183,-0.722489 2.00942,0 3.34151,0.722489 1.35467,0.699912 2.00943,2.122313 0.65475,1.399824 0.54186,3.544715 h -9.91165 q 0.11289,0.948268 0.6096,1.715913 0.51929,0.745067 1.39982,1.174046 0.88054,0.4064 2.05458,0.4064 1.30952,0 2.19005,-0.519289 0.90311,-0.51929 1.17405,-1.377246 z m -3.47699,-5.757339 q -1.53529,0 -2.52871,0.767645 -0.99342,0.745067 -1.28693,1.919113 h 7.24747 q -0.0903,-1.264357 -1.016,-1.964269 -0.92569,-0.722489 -2.41583,-0.722489 z m 19.16855,-1.783647 -5.28321,6.208896 -3.97369,5.034849 h -3.07058 l 5.55414,-6.547562 3.72533,-4.696183 z m -12.32748,0 h 3.09315 l 3.9737,4.696183 5.55414,6.547562 h -3.07058 l -4.10916,-4.989694 z"
                 id="path55"
                 style="fill:#fade2c;fill-opacity:1" />
            </g>
          </g>
        </g>
        <g
           id="g6"
           transform="matrix(0.87640132,0,0,0.87640132,-89.469075,32.585492)">
          <path
             d="m 190.17604,99.715856 -1.21508,-0.810047 1.68194,-1.613061 -2.36736,0.30452 v -1.464321 l 2.41259,0.278945 -1.72717,-1.587485 1.21508,-0.810049 1.00145,1.908168 1.03926,-1.908168 1.21506,0.810049 -1.76494,1.587485 2.46595,-0.278945 v 1.464321 l -2.38294,-0.30452 1.68193,1.613061 -1.21506,0.810047 -1.03926,-1.835862 z"
             id="path5"
             style="font-weight:800;font-size:22.5778px;font-family:'Host Grotesk';-inkscape-font-specification:'Host Grotesk, Ultra-Bold';letter-spacing:-0.0396875px;word-spacing:0px;fill:#fade2c;fill-opacity:1;stroke-width:0.182553"
             aria-label="*" />
          <path
             d="m 193.05244,105.4871 6.26426,-11.476505 h 1.76981 l -6.23706,11.476505 z"
             id="path6"
             style="font-style:italic;font-weight:800;font-size:16.7156px;font-family:'Host Grotesk';-inkscape-font-specification:'Host Grotesk, Ultra-Bold Italic';letter-spacing:-0.0293827px;word-spacing:0px;fill:#0d0d0c;stroke-width:0.150288"
             aria-label="/" />
        </g>
      </g>
      <g
         id="g12"
         transform="translate(28.196203,11.547017)"
         style="fill:#ffffff;fill-opacity:1">
        <g
           id="g10"
           transform="matrix(0.55039414,0,0,0.55039414,42.997073,94.752778)"
           style="fill:#ffffff;fill-opacity:1">
          <g
             id="g9"
             style="font-weight:600;font-size:22.5778px;font-family:Syne;-inkscape-font-specification:'Syne, Semi-Bold';letter-spacing:0px;fill:#ffffff;fill-opacity:1;stroke-width:0.264583"
             aria-label="regex">
            <g
               id="g8"
               transform="matrix(0.93318104,0,0,0.93318104,11.177929,3.9243627)"
               style="fill:#ffffff;fill-opacity:1">
              <path
                 style="letter-spacing:-0.0396875px;fill:#ffffff;fill-opacity:1"
                 d="m 78.872129,38.88539 h 2.506136 v 11.243745 h -2.506136 z m 6.57014,2.144891 q -1.219201,0 -2.099736,0.51929 -0.857956,0.519289 -1.377245,1.264357 -0.51929,0.745067 -0.72249,1.444979 L 81.22022,42.99455 q 0.02258,-0.248356 0.158045,-0.745067 0.135467,-0.51929 0.4064,-1.12889 0.293512,-0.609601 0.767645,-1.174046 0.496712,-0.587023 1.196624,-0.948268 0.72249,-0.361244 1.693335,-0.361244 z"
                 id="path1" />
              <path
                 style="word-spacing:0px;fill:#ffffff;fill-opacity:1"
                 d="m 96.691482,46.426376 h 2.415824 q -0.180622,1.151468 -0.903112,2.05458 -0.699911,0.880534 -1.919113,1.399823 -1.219201,0.496712 -2.912536,0.496712 -1.919113,0 -3.431826,-0.699912 -1.512712,-0.72249 -2.370669,-2.032002 -0.857956,-1.309512 -0.857956,-3.115736 0,-1.783647 0.835378,-3.115737 0.835379,-1.33209 2.302936,-2.05458 1.490135,-0.722489 3.431826,-0.722489 2.009424,0 3.341514,0.722489 1.354668,0.699912 2.009425,2.122313 0.654756,1.399824 0.541867,3.544715 h -9.911655 q 0.112889,0.948268 0.609601,1.715913 0.519289,0.745067 1.399824,1.174046 0.880534,0.4064 2.054579,0.4064 1.309513,0 2.190047,-0.519289 0.903112,-0.51929 1.174046,-1.377246 z M 93.2145,40.669037 q -1.53529,0 -2.528713,0.767645 -0.993424,0.745067 -1.286935,1.919113 h 7.247474 q -0.09031,-1.264357 -1.016001,-1.964269 -0.92569,-0.722489 -2.415825,-0.722489 z"
                 id="path4" />
              <path
                 d="m 106.42251,48.390644 q -1.58044,0 -2.86738,-0.564445 -1.26435,-0.564445 -2.00942,-1.648179 -0.72249,-1.083734 -0.72249,-2.596447 0,-1.512713 0.69991,-2.619025 0.72249,-1.106312 1.98685,-1.715913 1.28693,-0.6096 2.91253,-0.6096 0.47414,0 0.90312,0.06773 0.45155,0.06773 0.85795,0.180622 l 5.26063,0.02258 v 2.099736 q -1.08374,0.02258 -2.19005,-0.293512 -1.08373,-0.338667 -1.91911,-0.699912 l -0.0677,-0.135466 q 0.76764,0.383822 1.37724,0.948267 0.63218,0.541867 0.99343,1.241779 0.36124,0.699912 0.36124,1.580446 0,1.490135 -0.72249,2.551292 -0.69991,1.061156 -1.96427,1.625601 -1.24178,0.564445 -2.88996,0.564445 z m 3.61245,6.321785 v -0.51929 q 0,-1.106312 -0.65475,-1.557868 -0.65476,-0.451556 -1.82881,-0.451556 h -3.048 q -0.90311,0 -1.55787,-0.158045 -0.63218,-0.135466 -1.016,-0.428978 -0.38382,-0.270933 -0.56444,-0.654756 -0.18063,-0.361245 -0.18063,-0.812801 0,-0.903112 0.54187,-1.354668 0.56445,-0.451556 1.46756,-0.587023 0.92569,-0.135467 1.94169,-0.04516 l 1.28693,0.248355 q -1.33209,0.04516 -2.032,0.248356 -0.67733,0.180623 -0.67733,0.745068 0,0.338667 0.27093,0.541867 0.27093,0.2032 0.76765,0.2032 h 3.20604 q 1.37725,0 2.41583,0.316089 1.03858,0.338667 1.60302,1.106313 0.58703,0.790223 0.58703,2.144891 v 1.016001 z m -3.61245,-8.286053 q 0.90312,0 1.60303,-0.338667 0.69991,-0.338667 1.10631,-0.970846 0.4064,-0.632178 0.4064,-1.53529 0,-0.903112 -0.4064,-1.557868 -0.4064,-0.654757 -1.10631,-0.993424 -0.69991,-0.338667 -1.60303,-0.338667 -0.88053,0 -1.60302,0.338667 -0.69991,0.338667 -1.10631,0.993424 -0.4064,0.632178 -0.4064,1.557868 0,0.903112 0.4064,1.53529 0.4064,0.632179 1.10631,0.970846 0.69991,0.338667 1.60302,0.338667 z m 18.28801,0 h 2.41582 q -0.18062,1.151468 -0.90311,2.05458 -0.69991,0.880534 -1.91911,1.399823 -1.21921,0.496712 -2.91254,0.496712 -1.91911,0 -3.43183,-0.699912 -1.51271,-0.72249 -2.37067,-2.032002 -0.85795,-1.309512 -0.85795,-3.115736 0,-1.783647 0.83538,-3.115737 0.83538,-1.33209 2.30293,-2.05458 1.49014,-0.722489 3.43183,-0.722489 2.00942,0 3.34151,0.722489 1.35467,0.699912 2.00943,2.122313 0.65475,1.399824 0.54186,3.544715 h -9.91165 q 0.11289,0.948268 0.6096,1.715913 0.51929,0.745067 1.39982,1.174046 0.88054,0.4064 2.05458,0.4064 1.30952,0 2.19005,-0.519289 0.90311,-0.51929 1.17405,-1.377246 z m -3.47699,-5.757339 q -1.53529,0 -2.52871,0.767645 -0.99342,0.745067 -1.28693,1.919113 h 7.24747 q -0.0903,-1.264357 -1.016,-1.964269 -0.92569,-0.722489 -2.41583,-0.722489 z m 19.16855,-1.783647 -5.28321,6.208896 -3.97369,5.034849 h -3.07058 l 5.55414,-6.547562 3.72533,-4.696183 z m -12.32748,0 h 3.09315 l 3.9737,4.696183 5.55414,6.547562 h -3.07058 l -4.10916,-4.989694 z"
                 id="path7"
                 style="fill:#ffffff;fill-opacity:1" />
            </g>
          </g>
        </g>
        <g
           id="g11"
           transform="matrix(0.87640132,0,0,0.87640132,-89.469075,32.585492)"
           style="fill:#ffffff;fill-opacity:1">
          <path
             d="m 190.17604,99.715856 -1.21508,-0.810047 1.68194,-1.613061 -2.36736,0.30452 v -1.464321 l 2.41259,0.278945 -1.72717,-1.587485 1.21508,-0.810049 1.00145,1.908168 1.03926,-1.908168 1.21506,0.810049 -1.76494,1.587485 2.46595,-0.278945 v 1.464321 l -2.38294,-0.30452 1.68193,1.613061 -1.21506,0.810047 -1.03926,-1.835862 z"
             id="path10"
             style="font-weight:800;font-size:22.5778px;font-family:'Host Grotesk';-inkscape-font-specification:'Host Grotesk, Ultra-Bold';letter-spacing:-0.0396875px;word-spacing:0px;fill:#ffffff;fill-opacity:1;stroke-width:0.182553"
             aria-label="*" />
          <path
             d="m 193.05244,105.4871 6.26426,-11.476505 h 1.76981 l -6.23706,11.476505 z"
             id="path11"
             style="font-style:italic;font-weight:800;font-size:16.7156px;font-family:'Host Grotesk';-inkscape-font-specification:'Host Grotesk, Ultra-Bold Italic';letter-spacing:-0.0293827px;word-spacing:0px;fill:#ffffff;fill-opacity:1;stroke-width:0.150288"
             aria-label="/" />
        </g>
      </g>
      <g
         id="g19"
         transform="translate(87.811031,-0.5370701)"
         style="fill:#ffffff;fill-opacity:1">
        <g
           id="g17"
           transform="matrix(0.55039414,0,0,0.55039414,42.997073,94.752778)"
           style="fill:#ffffff;fill-opacity:1">
          <g
             id="g16"
             style="font-weight:600;font-size:22.5778px;font-family:Syne;-inkscape-font-specification:'Syne, Semi-Bold';letter-spacing:0px;fill:#5d5d5d;fill-opacity:1;stroke-width:0.264583"
             aria-label="regex">
            <g
               id="g15"
               transform="matrix(0.93318104,0,0,0.93318104,11.177929,3.9243627)"
               style="fill:#5d5d5d;fill-opacity:1">
              <path
                 style="letter-spacing:-0.0396875px;fill:#5d5d5d;fill-opacity:1"
                 d="m 78.872129,38.88539 h 2.506136 v 11.243745 h -2.506136 z m 6.57014,2.144891 q -1.219201,0 -2.099736,0.51929 -0.857956,0.519289 -1.377245,1.264357 -0.51929,0.745067 -0.72249,1.444979 L 81.22022,42.99455 q 0.02258,-0.248356 0.158045,-0.745067 0.135467,-0.51929 0.4064,-1.12889 0.293512,-0.609601 0.767645,-1.174046 0.496712,-0.587023 1.196624,-0.948268 0.72249,-0.361244 1.693335,-0.361244 z"
                 id="path12" />
              <path
                 style="word-spacing:0px;fill:#5d5d5d;fill-opacity:1"
                 d="m 96.691482,46.426376 h 2.415824 q -0.180622,1.151468 -0.903112,2.05458 -0.699911,0.880534 -1.919113,1.399823 -1.219201,0.496712 -2.912536,0.496712 -1.919113,0 -3.431826,-0.699912 -1.512712,-0.72249 -2.370669,-2.032002 -0.857956,-1.309512 -0.857956,-3.115736 0,-1.783647 0.835378,-3.115737 0.835379,-1.33209 2.302936,-2.05458 1.490135,-0.722489 3.431826,-0.722489 2.009424,0 3.341514,0.722489 1.354668,0.699912 2.009425,2.122313 0.654756,1.399824 0.541867,3.544715 h -9.911655 q 0.112889,0.948268 0.609601,1.715913 0.519289,0.745067 1.399824,1.174046 0.880534,0.4064 2.054579,0.4064 1.309513,0 2.190047,-0.519289 0.903112,-0.51929 1.174046,-1.377246 z M 93.2145,40.669037 q -1.53529,0 -2.528713,0.767645 -0.993424,0.745067 -1.286935,1.919113 h 7.247474 q -0.09031,-1.264357 -1.016001,-1.964269 -0.92569,-0.722489 -2.415825,-0.722489 z"
                 id="path13" />
              <path
                 d="m 106.42251,48.390644 q -1.58044,0 -2.86738,-0.564445 -1.26435,-0.564445 -2.00942,-1.648179 -0.72249,-1.083734 -0.72249,-2.596447 0,-1.512713 0.69991,-2.619025 0.72249,-1.106312 1.98685,-1.715913 1.28693,-0.6096 2.91253,-0.6096 0.47414,0 0.90312,0.06773 0.45155,0.06773 0.85795,0.180622 l 5.26063,0.02258 v 2.099736 q -1.08374,0.02258 -2.19005,-0.293512 -1.08373,-0.338667 -1.91911,-0.699912 l -0.0677,-0.135466 q 0.76764,0.383822 1.37724,0.948267 0.63218,0.541867 0.99343,1.241779 0.36124,0.699912 0.36124,1.580446 0,1.490135 -0.72249,2.551292 -0.69991,1.061156 -1.96427,1.625601 -1.24178,0.564445 -2.88996,0.564445 z m 3.61245,6.321785 v -0.51929 q 0,-1.106312 -0.65475,-1.557868 -0.65476,-0.451556 -1.82881,-0.451556 h -3.048 q -0.90311,0 -1.55787,-0.158045 -0.63218,-0.135466 -1.016,-0.428978 -0.38382,-0.270933 -0.56444,-0.654756 -0.18063,-0.361245 -0.18063,-0.812801 0,-0.903112 0.54187,-1.354668 0.56445,-0.451556 1.46756,-0.587023 0.92569,-0.135467 1.94169,-0.04516 l 1.28693,0.248355 q -1.33209,0.04516 -2.032,0.248356 -0.67733,0.180623 -0.67733,0.745068 0,0.338667 0.27093,0.541867 0.27093,0.2032 0.76765,0.2032 h 3.20604 q 1.37725,0 2.41583,0.316089 1.03858,0.338667 1.60302,1.106313 0.58703,0.790223 0.58703,2.144891 v 1.016001 z m -3.61245,-8.286053 q 0.90312,0 1.60303,-0.338667 0.69991,-0.338667 1.10631,-0.970846 0.4064,-0.632178 0.4064,-1.53529 0,-0.903112 -0.4064,-1.557868 -0.4064,-0.654757 -1.10631,-0.993424 -0.69991,-0.338667 -1.60303,-0.338667 -0.88053,0 -1.60302,0.338667 -0.69991,0.338667 -1.10631,0.993424 -0.4064,0.632178 -0.4064,1.557868 0,0.903112 0.4064,1.53529 0.4064,0.632179 1.10631,0.970846 0.69991,0.338667 1.60302,0.338667 z m 18.28801,0 h 2.41582 q -0.18062,1.151468 -0.90311,2.05458 -0.69991,0.880534 -1.91911,1.399823 -1.21921,0.496712 -2.91254,0.496712 -1.91911,0 -3.43183,-0.699912 -1.51271,-0.72249 -2.37067,-2.032002 -0.85795,-1.309512 -0.85795,-3.115736 0,-1.783647 0.83538,-3.115737 0.83538,-1.33209 2.30293,-2.05458 1.49014,-0.722489 3.43183,-0.722489 2.00942,0 3.34151,0.722489 1.35467,0.699912 2.00943,2.122313 0.65475,1.399824 0.54186,3.544715 h -9.91165 q 0.11289,0.948268 0.6096,1.715913 0.51929,0.745067 1.39982,1.174046 0.88054,0.4064 2.05458,0.4064 1.30952,0 2.19005,-0.519289 0.90311,-0.51929 1.17405,-1.377246 z m -3.47699,-5.757339 q -1.53529,0 -2.52871,0.767645 -0.99342,0.745067 -1.28693,1.919113 h 7.24747 q -0.0903,-1.264357 -1.016,-1.964269 -0.92569,-0.722489 -2.41583,-0.722489 z m 19.16855,-1.783647 -5.28321,6.208896 -3.97369,5.034849 h -3.07058 l 5.55414,-6.547562 3.72533,-4.696183 z m -12.32748,0 h 3.09315 l 3.9737,4.696183 5.55414,6.547562 h -3.07058 l -4.10916,-4.989694 z"
                 id="path14"
                 style="fill:#5d5d5d;fill-opacity:1" />
            </g>
          </g>
        </g>
        <g
           id="g18"
           transform="matrix(0.87640132,0,0,0.87640132,-89.469075,32.585492)"
           style="fill:#535353;fill-opacity:1">
          <path
             d="m 190.17604,99.715856 -1.21508,-0.810047 1.68194,-1.613061 -2.36736,0.30452 v -1.464321 l 2.41259,0.278945 -1.72717,-1.587485 1.21508,-0.810049 1.00145,1.908168 1.03926,-1.908168 1.21506,0.810049 -1.76494,1.587485 2.46595,-0.278945 v 1.464321 l -2.38294,-0.30452 1.68193,1.613061 -1.21506,0.810047 -1.03926,-1.835862 z"
             id="path17"
             style="font-weight:800;font-size:22.5778px;font-family:'Host Grotesk';-inkscape-font-specification:'Host Grotesk, Ultra-Bold';letter-spacing:-0.0396875px;word-spacing:0px;fill:#535353;fill-opacity:1;stroke-width:0.182553"
             aria-label="*" />
          <path
             d="m 193.05244,105.4871 6.26426,-11.476505 h 1.76981 l -6.23706,11.476505 z"
             id="path18"
             style="font-style:italic;font-weight:800;font-size:16.7156px;font-family:'Host Grotesk';-inkscape-font-specification:'Host Grotesk, Ultra-Bold Italic';letter-spacing:-0.0293827px;word-spacing:0px;fill:#535353;fill-opacity:1;stroke-width:0.150288"
             aria-label="/" />
        </g>
      </g>
    </g>
  </g>
  <metadata
     id="metadata25">
    <rdf:RDF>
      <cc:Work
         rdf:about="" />
    </rdf:RDF>
  </metadata>
</svg>
